<svg width="38" height="36" viewBox="0 0 38 36" fill="none" xmlns="http://www.w3.org/2000/svg">
<path d="M26.0435 10.9565H32.2946C32.5285 10.9549 32.7574 11.0288 32.9512 11.1684C33.145 11.3081 33.2947 11.507 33.3805 11.7391L35.4349 17.2174" stroke="#812614" stroke-width="2" stroke-linecap="round" stroke-linejoin="round"/>
<path d="M2.56516 20.3478H26.0435" stroke="#812614" stroke-width="2" stroke-linecap="round" stroke-linejoin="round"/>
<path d="M27.9997 30.5217C29.9447 30.5217 31.5215 28.945 31.5215 27C31.5215 25.055 29.9447 23.4782 27.9997 23.4782C26.0547 23.4782 24.478 25.055 24.478 27C24.478 28.945 26.0547 30.5217 27.9997 30.5217Z" stroke="#812614" stroke-width="2" stroke-linecap="round" stroke-linejoin="round"/>
<path d="M10.0003 30.5217C11.9453 30.5217 13.522 28.945 13.522 27C13.522 25.055 11.9453 23.4782 10.0003 23.4782C8.05526 23.4782 6.47852 25.055 6.47852 27C6.47852 28.945 8.05526 30.5217 10.0003 30.5217Z" stroke="#812614" stroke-width="2" stroke-linecap="round" stroke-linejoin="round"/>
<path d="M24.4786 26.6086H13.522" stroke="#812614" stroke-width="2" stroke-linecap="round" stroke-linejoin="round"/>
<path d="M6.08691 26.6087H3.73907C3.42773 26.6087 3.12914 26.4902 2.90899 26.2792C2.68884 26.0682 2.56516 25.7821 2.56516 25.4837V9.73365C2.56516 9.43528 2.68884 9.14913 2.90899 8.93815C3.12914 8.72717 3.42773 8.60864 3.73907 8.60864H26.0435V23.6837" stroke="#812614" stroke-width="2" stroke-linecap="round" stroke-linejoin="round"/>
<path d="M26.0435 17.2172H35.4349V25.5651C35.4349 25.8418 35.3112 26.1073 35.091 26.3029C34.8709 26.4986 34.5723 26.6086 34.2609 26.6086H32.3044" stroke="#812614" stroke-width="2" stroke-linecap="round" stroke-linejoin="round"/>
</svg>
